<svg width="38" height="28" viewBox="0 0 38 28" fill="none" xmlns="http://www.w3.org/2000/svg">
<path d="M31.7832 2.36473C31.773 2.34493 31.7561 2.32943 31.7354 2.32098C29.3527 1.22777 26.8383 0.448221 24.2551 0.00185107C24.2316 -0.00251211 24.2073 0.000635539 24.1858 0.0108464C24.1642 0.0210572 24.1464 0.0378113 24.1349 0.0587261C23.7925 0.680157 23.4817 1.31847 23.2036 1.97123C20.419 1.54853 17.5866 1.54853 14.802 1.97123C14.5221 1.31681 14.2063 0.67834 13.8561 0.0587261C13.844 0.0382658 13.8261 0.0218976 13.8047 0.0117531C13.7833 0.00160857 13.7592 -0.00184195 13.7358 0.00185107C11.1523 0.447284 8.6377 1.22689 6.25531 2.32104C6.23491 2.32969 6.2177 2.34445 6.20606 2.36329C1.44174 9.47817 0.136616 16.4181 0.776866 23.2721C0.778668 23.2889 0.783828 23.3052 0.792042 23.3199C0.800256 23.3347 0.811355 23.3477 0.824679 23.358C3.59889 25.4121 6.70189 26.98 10.0012 27.9949C10.0245 28.0018 10.0493 28.0015 10.0723 27.994C10.0954 27.9864 10.1156 27.972 10.1302 27.9526C10.8388 26.9884 11.4667 25.9674 12.0075 24.9C12.0149 24.8853 12.0192 24.8693 12.0199 24.8529C12.0207 24.8365 12.018 24.8201 12.012 24.8048C12.006 24.7895 11.9968 24.7757 11.985 24.7642C11.9733 24.7527 11.9592 24.7439 11.9438 24.7382C10.9537 24.3594 9.99507 23.9027 9.07706 23.3724C9.06038 23.3626 9.04638 23.3489 9.03628 23.3324C9.02618 23.3159 9.0203 23.2971 9.01916 23.2778C9.01801 23.2585 9.02164 23.2392 9.02972 23.2216C9.03781 23.2041 9.05009 23.1887 9.06549 23.177C9.25812 23.0327 9.45087 22.8826 9.63481 22.731C9.65115 22.7175 9.67092 22.7089 9.6919 22.7061C9.71288 22.7032 9.73424 22.7063 9.75356 22.715C15.7679 25.4598 22.2792 25.4598 28.2223 22.715C28.2417 22.7058 28.2633 22.7023 28.2845 22.7048C28.3058 22.7074 28.326 22.716 28.3426 22.7295C28.5266 22.8812 28.7193 23.0327 28.9133 23.177C28.9288 23.1886 28.9412 23.2038 28.9494 23.2214C28.9576 23.2389 28.9614 23.2581 28.9604 23.2774C28.9594 23.2967 28.9536 23.3155 28.9437 23.3321C28.9337 23.3486 28.9198 23.3625 28.9032 23.3724C27.9873 23.9071 27.0278 24.3636 26.0351 24.7368C26.0196 24.7427 26.0056 24.7517 25.994 24.7634C25.9823 24.775 25.9732 24.789 25.9673 24.8044C25.9614 24.8198 25.9588 24.8363 25.9597 24.8528C25.9606 24.8692 25.965 24.8853 25.9726 24.9C26.5224 25.9615 27.1494 26.9812 27.8484 27.9509C27.8626 27.9708 27.8827 27.9857 27.9058 27.9936C27.929 28.0014 27.954 28.0018 27.9774 27.9947C31.2826 26.9833 34.3911 25.4152 37.1688 23.358C37.1823 23.3482 37.1935 23.3355 37.2018 23.321C37.21 23.3064 37.2151 23.2902 37.2166 23.2735C37.9831 15.3496 35.9333 8.46654 31.7832 2.36473ZM12.9057 19.0987C11.0949 19.0987 9.60293 17.437 9.60293 15.3963C9.60293 13.3555 11.066 11.6937 12.9057 11.6937C14.7597 11.6937 16.2373 13.37 16.2084 15.3962C16.2084 17.437 14.7452 19.0987 12.9057 19.0987ZM25.1169 19.0987C23.3062 19.0987 21.8142 17.437 21.8142 15.3963C21.8142 13.3555 23.2773 11.6937 25.1169 11.6937C26.9711 11.6937 28.4486 13.37 28.4197 15.3962C28.4197 17.437 26.9711 19.0987 25.1169 19.0987Z" fill="url(#paint0_linear_78_54)"/>
<defs>
<linearGradient id="paint0_linear_78_54" x1="39.1289" y1="27.9998" x2="-1.21811" y2="27.2649" gradientUnits="userSpaceOnUse">
<stop stop-color="#00B712"/>
<stop offset="0.455446" stop-color="#02F781"/>
<stop offset="1" stop-color="#8FFF00"/>
</linearGradient>
</defs>
</svg>
